<svg width="800" height="600" viewBox="0 0 800 600" fill="none" xmlns="http://www.w3.org/2000/svg">
<path d="M160 276L250 138L340 276H160Z" fill="#52C41A" stroke="black" stroke-width="15"/>
<g clip-path="url(#clip0_1_2)">
<rect x="189" y="169" width="122" height="78" fill="none" stroke="white" stroke-width="4"/>
<circle cx="250" cy="207" r="21" fill="none" stroke="white" stroke-width="4"/>
<circle cx="250" cy="207" r="3" fill="white"/>
<rect x="216" y="169" width="68" height="20" fill="none" stroke="white" stroke-width="3"/>
<rect x="216" y="227" width="68" height="20" fill="none" stroke="white" stroke-width="3"/>
<line x1="189" y1="207" x2="311" y2="207" stroke="white" stroke-width="3"/>
</g>
<path d="M349.496 335.32C356.636 335.32 362.596 334.36 367.376 332.44C372.156 330.44 375.836 327.64 378.416 324.04C380.996 320.44 382.286 316.28 382.286 311.56C382.286 307 381.116 303.04 378.776 299.68C376.516 296.32 373.166 293.68 368.726 291.76C364.366 289.76 358.996 288.76 352.616 288.76H341.126V344H331.046V280.12H353.816C363.096 280.12 370.476 282.84 375.956 288.28C381.516 293.64 384.296 300.88 384.296 309.88C384.296 315.32 382.766 320.08 379.706 324.16C376.646 328.24 372.236 331.36 366.476 333.52C360.796 335.68 354.036 336.76 346.196 336.76H335.666V344H325.586V280.12H319.286V270.76H355.226C365.546 270.76 373.846 273.64 380.126 279.4C386.486 285.08 389.666 292.72 389.666 302.32C389.666 308.24 387.966 313.36 384.566 317.68C381.246 321.92 376.566 325.08 370.526 327.16C364.566 329.24 357.646 330.28 349.766 330.28H337.016V344H327.016V280.12H321.016V270.76H349.496V335.32Z" fill="black"/>
<path d="M419.4 344.96C414.36 344.96 409.8 343.92 405.72 341.84C401.64 339.76 398.36 336.8 395.88 332.96C393.48 329.12 392.28 324.64 392.28 319.52V294.4C392.28 289.28 393.48 284.8 395.88 280.96C398.36 277.12 401.64 274.16 405.72 272.08C409.8 270 414.36 268.96 419.4 268.96C424.44 268.96 428.96 270 433.04 272.08C437.12 274.16 440.4 277.12 442.88 280.96C445.36 284.8 446.6 289.28 446.6 294.4V319.52C446.6 324.64 445.36 329.12 442.88 332.96C440.4 336.8 437.12 339.76 433.04 341.84C428.96 343.92 424.44 344.96 419.4 344.96ZM419.4 336.4C422.52 336.4 425.24 335.72 427.56 334.36C429.88 333 431.68 331.08 432.96 328.6C434.32 326.12 435 323.2 435 319.84V294.08C435 290.72 434.32 287.8 432.96 285.32C431.68 282.84 429.88 280.92 427.56 279.56C425.24 278.2 422.52 277.52 419.4 277.52C416.28 277.52 413.56 278.2 411.24 279.56C408.92 280.92 407.08 282.84 405.72 285.32C404.44 287.8 403.8 290.72 403.8 294.08V319.84C403.8 323.2 404.44 326.12 405.72 328.6C407.08 331.08 408.92 333 411.24 334.36C413.56 335.72 416.28 336.4 419.4 336.4Z" fill="black"/>
<path d="M457.34 344V270.76H481.66C488.7 270.76 494.62 272.08 499.42 274.72C504.22 277.36 507.78 281.08 510.1 285.88C512.42 290.68 513.58 296.32 513.58 302.8C513.58 309.28 512.42 314.92 510.1 319.72C507.78 324.52 504.22 328.24 499.42 330.88C494.62 333.52 488.7 334.84 481.66 334.84H469.34V344H457.34ZM469.34 325.84H481.18C485.34 325.84 488.78 325.04 491.5 323.44C494.22 321.84 496.22 319.56 497.5 316.6C498.78 313.64 499.42 310.12 499.42 306.04V299.56C499.42 295.48 498.78 291.96 497.5 289C496.22 286.04 494.22 283.76 491.5 282.16C488.78 280.56 485.34 279.76 481.18 279.76H469.34V325.84Z" fill="black"/>
<path d="M530.1 344V270.76H569.46V279.76H542.1V302.8H566.82V311.8H542.1V335H569.46V344H530.1Z" fill="black"/>
<path d="M578.32 344V270.76H590.32V335H613.6V344H578.32Z" fill="black"/>
<path d="M631.676 344H619.676V270.76H640.556L659.756 315.28L678.956 270.76H699.836V344H687.836V305.2L674.156 344H645.596L631.676 305.2V344Z" fill="black"/>
<path d="M349.496 472.32C356.636 472.32 362.596 471.36 367.376 469.44C372.156 467.44 375.836 464.64 378.416 461.04C380.996 457.44 382.286 453.28 382.286 448.56C382.286 444 381.116 440.04 378.776 436.68C376.516 433.32 373.166 430.68 368.726 428.76C364.366 426.76 358.996 425.76 352.616 425.76H341.126V481H331.046V417.12H353.816C363.096 417.12 370.476 419.84 375.956 425.28C381.516 430.64 384.296 437.88 384.296 446.88C384.296 452.32 382.766 457.08 379.706 461.16C376.646 465.24 372.236 468.36 366.476 470.52C360.796 472.68 354.036 473.76 346.196 473.76H335.666V481H325.586V417.12H319.286V407.76H355.226C365.546 407.76 373.846 410.64 380.126 416.4C386.486 422.08 389.666 429.72 389.666 439.32C389.666 445.24 387.966 450.36 384.566 454.68C381.246 458.92 376.566 462.08 370.526 464.16C364.566 466.24 357.646 467.28 349.766 467.28H337.016V481H327.016V417.12H321.016V407.76H349.496V472.32Z" fill="black"/>
<path d="M394.18 481V407.76H406.18V472H433.46V481H394.18Z" fill="black"/>
<path d="M453.596 481H441.596V407.76H462.476L481.676 452.28L500.876 407.76H521.756V481H509.756V442.2L496.076 481H467.516L453.596 442.2V481Z" fill="black"/>
<path d="M541.94 481V470.2L564.02 444.6L541.94 419V407.76H556.22L571.94 426.4L587.66 407.76H601.94V419L579.86 444.6L601.94 470.2V481H587.66L571.94 462.8L556.22 481H541.94Z" fill="black"/>
<defs>
<clipPath id="clip0_1_2">
<rect x="189" y="169" width="122" height="78" fill="white"/>
</clipPath>
</defs>
</svg>
