<svg width="200" height="60" viewBox="0 0 200 60" fill="none" xmlns="http://www.w3.org/2000/svg">
<path d="M20 34.5L30 17.25L40 34.5H20Z" fill="#52C41A" stroke="black" stroke-width="1.875"/>
<g clip-path="url(#clip0_1_2)">
<rect x="23.625" y="21.125" width="12.75" height="8.125" fill="none" stroke="white" stroke-width="0.5"/>
<circle cx="30" cy="25.875" r="2.1875" fill="none" stroke="white" stroke-width="0.5"/>
<circle cx="30" cy="25.875" r="0.3125" fill="white"/>
<rect x="26.75" y="21.125" width="7.0625" height="2.1875" fill="none" stroke="white" stroke-width="0.375"/>
<rect x="26.75" y="28.375" width="7.0625" height="2.1875" fill="none" stroke="white" stroke-width="0.375"/>
<line x1="23.625" y1="25.875" x2="36.375" y2="25.875" stroke="white" stroke-width="0.375"/>
</g>
<path d="M44.872 33.32C47.752 33.32 50.152 32.84 52.072 31.88C53.992 30.88 55.472 29.52 56.512 27.8C57.552 26.08 58.072 24.12 58.072 21.92C58.072 19.8 57.632 17.92 56.752 16.28C55.912 14.64 54.672 13.32 53.032 12.32C51.432 11.28 49.472 10.76 47.152 10.76H42.112V35H39.232V8.12H47.512C51.192 8.12 54.272 8.9 56.752 10.46C59.272 11.98 61.152 14.04 62.392 16.64C63.632 19.24 64.252 22.16 64.252 25.4C64.252 27.72 63.912 29.84 63.232 31.76C62.552 33.68 61.572 35.36 60.292 36.8C59.052 38.24 57.532 39.36 55.732 40.16C53.972 40.96 51.972 41.36 49.732 41.36H45.172V35H44.872V33.32ZM42.112 10.76V33.32H47.032C49.152 33.32 50.972 32.92 52.492 32.12C54.052 31.32 55.252 30.2 56.092 28.76C56.932 27.32 57.352 25.64 57.352 23.72V21.32C57.352 19.4 56.932 17.72 56.092 16.28C55.252 14.84 54.052 13.72 52.492 12.92C50.972 12.12 49.152 11.72 47.032 11.72H42.112V10.76Z" fill="black"/>
<path d="M74.104 41.96C71.944 41.96 70.004 41.52 68.284 40.64C66.564 39.76 65.184 38.52 64.144 36.92C63.144 35.32 62.644 33.44 62.644 31.28V17.96C62.644 15.8 63.144 13.92 64.144 12.32C65.184 10.72 66.564 9.48 68.284 8.6C70.004 7.72 71.944 7.28 74.104 7.28C76.264 7.28 78.184 7.72 79.904 8.6C81.624 9.48 83.004 10.72 84.044 12.32C85.084 13.92 85.604 15.8 85.604 17.96V31.28C85.604 33.44 85.084 35.32 84.044 36.92C83.004 38.52 81.624 39.76 79.904 40.64C78.184 41.52 76.264 41.96 74.104 41.96ZM74.104 39.32C75.704 39.32 77.124 39 78.364 38.36C79.604 37.72 80.584 36.8 81.304 35.6C82.064 34.4 82.444 32.96 82.444 31.28V17.96C82.444 16.28 82.064 14.84 81.304 13.64C80.584 12.44 79.604 11.52 78.364 10.88C77.124 10.24 75.704 9.92 74.104 9.92C72.504 9.92 71.084 10.24 69.844 10.88C68.604 11.52 67.604 12.44 66.844 13.64C66.124 14.84 65.764 16.28 65.764 17.96V31.28C65.764 32.96 66.124 34.4 66.844 35.6C67.604 36.8 68.604 37.72 69.844 38.36C71.084 39 72.504 39.32 74.104 39.32Z" fill="black"/>
<path d="M89.608 35V8.12H99.628C102.308 8.12 104.608 8.6 106.528 9.56C108.448 10.52 109.928 11.88 110.968 13.64C112.008 15.4 112.528 17.44 112.528 19.76C112.528 22.08 112.008 24.12 110.968 25.88C109.928 27.64 108.448 29 106.528 29.96C104.608 30.92 102.308 31.4 99.628 31.4H92.488V35H89.608ZM92.488 28.76H99.388C101.268 28.76 102.828 28.36 104.068 27.56C105.308 26.76 106.228 25.68 106.828 24.32C107.428 22.96 107.728 21.44 107.728 19.76C107.728 18.08 107.428 16.56 106.828 15.2C106.228 13.84 105.308 12.76 104.068 11.96C102.828 11.16 101.268 10.76 99.388 10.76H92.488V28.76Z" fill="black"/>
<path d="M116.752 35V8.12H134.752V10.76H119.632V19.76H133.072V22.4H119.632V32.36H134.752V35H116.752Z" fill="black"/>
<path d="M139.024 35V8.12H142.024V32.36H154.624V35H139.024Z" fill="black"/>
<path d="M157.48 35H154.48V8.12H162.04L171.04 28.4L180.04 8.12H187.6V35H184.6V17.2L177.76 35H164.32L157.48 17.2V35Z" fill="black"/>
<path d="M44.872 55.32C47.752 55.32 50.152 54.84 52.072 53.88C53.992 52.88 55.472 51.52 56.512 49.8C57.552 48.08 58.072 46.12 58.072 43.92C58.072 41.8 57.632 39.92 56.752 38.28C55.912 36.64 54.672 35.32 53.032 34.32C51.432 33.28 49.472 32.76 47.152 32.76H42.112V57H39.232V30.12H47.512C51.192 30.12 54.272 30.9 56.752 32.46C59.272 33.98 61.152 36.04 62.392 38.64C63.632 41.24 64.252 44.16 64.252 47.4C64.252 49.72 63.912 51.84 63.232 53.76C62.552 55.68 61.572 57.36 60.292 58.8C59.052 60.24 57.532 61.36 55.732 62.16C53.972 62.96 51.972 63.36 49.732 63.36H45.172V57H44.872V55.32ZM42.112 32.76V55.32H47.032C49.152 55.32 50.972 54.92 52.492 54.12C54.052 53.32 55.252 52.2 56.092 50.76C56.932 49.32 57.352 47.64 57.352 45.72V43.32C57.352 41.4 56.932 39.72 56.092 38.28C55.252 36.84 54.052 35.72 52.492 34.92C50.972 34.12 49.152 33.72 47.032 33.72H42.112V32.76Z" fill="black"/>
<path d="M67.024 57V30.12H69.904V54.36H81.784V57H67.024Z" fill="black"/>
<path d="M84.736 57H81.736V30.12H89.296L98.296 50.4L107.296 30.12H114.856V57H111.856V39.2L106.016 57H90.576L84.736 39.2V57Z" fill="black"/>
<path d="M122.752 57V51.48L132.352 42.12L122.752 32.76V30.12H126.112L134.752 38.4L143.392 30.12H146.752V32.76L137.152 42.12L146.752 51.48V57H143.392L134.752 48.72L126.112 57H122.752Z" fill="black"/>
<defs>
<clipPath id="clip0_1_2">
<rect x="23.625" y="21.125" width="12.75" height="8.125" fill="white"/>
</clipPath>
</defs>
</svg>
